# MagicaVoxel @ Ephtracy

# material
mtllib coin.mtl
usemtl palette

# normals
vn -1 0 0
vn 1 0 0
vn 0 0 1
vn 0 0 -1
vn 0 -1 0
vn 0 1 0

# texcoords
vt 0.208984 0.5
vt 0.291016 0.5
vt 0.373047 0.5

# verts
v -4.5 2 1.5
v -4.5 2 -1.5
v -4.5 3 1.5
v -4.5 3 -1.5
v -4.5 4 1.5
v -4.5 4 -1.5
v -4.5 5 1.5
v -4.5 5 -1.5
v -4.5 6 1.5
v -4.5 6 -1.5
v -4.5 7 1.5
v -4.5 7 -1.5
v -3.5 1 1.5
v -3.5 1 -1.5
v -3.5 2 1.5
v -3.5 2 -1.5
v -3.5 7 1.5
v -3.5 7 -1.5
v -3.5 8 1.5
v -3.5 8 -1.5
v -2.5 0 1.5
v -2.5 0 -1.5
v -2.5 1 1.5
v -2.5 1 -1.5
v -2.5 8 1.5
v -2.5 8 -1.5
v -2.5 9 1.5
v -2.5 9 -1.5
v 2.5 1 1.5
v 2.5 1 0.5
v 2.5 1 -0.5
v 2.5 1 -1.5
v 2.5 2 1.5
v 2.5 2 0.5
v 2.5 2 -0.5
v 2.5 2 -1.5
v 2.5 7 1.5
v 2.5 7 0.5
v 2.5 7 -0.5
v 2.5 7 -1.5
v 2.5 8 1.5
v 2.5 8 0.5
v 2.5 8 -0.5
v 2.5 8 -1.5
v 3.5 2 1.5
v 3.5 2 0.5
v 3.5 2 -0.5
v 3.5 2 -1.5
v 3.5 3 1.5
v 3.5 3 0.5
v 3.5 3 -0.5
v 3.5 3 -1.5
v 3.5 4 1.5
v 3.5 4 0.5
v 3.5 4 -0.5
v 3.5 4 -1.5
v 3.5 5 1.5
v 3.5 5 0.5
v 3.5 5 -0.5
v 3.5 5 -1.5
v 3.5 6 1.5
v 3.5 6 0.5
v 3.5 6 -0.5
v 3.5 6 -1.5
v 3.5 7 1.5
v 3.5 7 0.5
v 3.5 7 -0.5
v 3.5 7 -1.5
v -3.5 2 1.5
v -3.5 2 0.5
v -3.5 2 -0.5
v -3.5 2 -1.5
v -3.5 3 1.5
v -3.5 3 0.5
v -3.5 3 -0.5
v -3.5 3 -1.5
v -3.5 4 1.5
v -3.5 4 0.5
v -3.5 4 -0.5
v -3.5 4 -1.5
v -3.5 5 1.5
v -3.5 5 0.5
v -3.5 5 -0.5
v -3.5 5 -1.5
v -3.5 6 1.5
v -3.5 6 0.5
v -3.5 6 -0.5
v -3.5 6 -1.5
v -3.5 7 1.5
v -3.5 7 0.5
v -3.5 7 -0.5
v -3.5 7 -1.5
v -2.5 1 1.5
v -2.5 1 0.5
v -2.5 1 -0.5
v -2.5 1 -1.5
v -2.5 2 1.5
v -2.5 2 0.5
v -2.5 2 -0.5
v -2.5 2 -1.5
v -2.5 7 1.5
v -2.5 7 0.5
v -2.5 7 -0.5
v -2.5 7 -1.5
v -2.5 8 1.5
v -2.5 8 0.5
v -2.5 8 -0.5
v -2.5 8 -1.5
v 2.5 0 1.5
v 2.5 0 -1.5
v 2.5 1 1.5
v 2.5 1 -1.5
v 2.5 8 1.5
v 2.5 8 -1.5
v 2.5 9 1.5
v 2.5 9 -1.5
v 3.5 1 1.5
v 3.5 1 -1.5
v 3.5 2 1.5
v 3.5 2 -1.5
v 3.5 7 1.5
v 3.5 7 -1.5
v 3.5 8 1.5
v 3.5 8 -1.5
v 4.5 2 1.5
v 4.5 2 -1.5
v 4.5 3 1.5
v 4.5 3 -1.5
v 4.5 4 1.5
v 4.5 4 -1.5
v 4.5 5 1.5
v 4.5 5 -1.5
v 4.5 6 1.5
v 4.5 6 -1.5
v 4.5 7 1.5
v 4.5 7 -1.5
v -4.5 2 1.5
v -4.5 3 1.5
v -4.5 4 1.5
v -4.5 5 1.5
v -4.5 6 1.5
v -4.5 7 1.5
v -3.5 1 1.5
v -3.5 2 1.5
v -3.5 3 1.5
v -3.5 4 1.5
v -3.5 5 1.5
v -3.5 6 1.5
v -3.5 7 1.5
v -3.5 8 1.5
v -2.5 0 1.5
v -2.5 1 1.5
v -2.5 2 1.5
v -2.5 7 1.5
v -2.5 8 1.5
v -2.5 9 1.5
v -1.5 0 1.5
v -1.5 1 1.5
v -1.5 8 1.5
v -1.5 9 1.5
v -0.5 0 1.5
v -0.5 1 1.5
v -0.5 8 1.5
v -0.5 9 1.5
v 0.5 0 1.5
v 0.5 1 1.5
v 0.5 8 1.5
v 0.5 9 1.5
v 1.5 0 1.5
v 1.5 1 1.5
v 1.5 8 1.5
v 1.5 9 1.5
v 2.5 0 1.5
v 2.5 1 1.5
v 2.5 2 1.5
v 2.5 7 1.5
v 2.5 8 1.5
v 2.5 9 1.5
v 3.5 1 1.5
v 3.5 2 1.5
v 3.5 3 1.5
v 3.5 4 1.5
v 3.5 5 1.5
v 3.5 6 1.5
v 3.5 7 1.5
v 3.5 8 1.5
v 4.5 2 1.5
v 4.5 3 1.5
v 4.5 4 1.5
v 4.5 5 1.5
v 4.5 6 1.5
v 4.5 7 1.5
v -3.5 2 0.5
v -3.5 3 0.5
v -3.5 4 0.5
v -3.5 5 0.5
v -3.5 6 0.5
v -3.5 7 0.5
v -2.5 1 0.5
v -2.5 2 0.5
v -2.5 5 0.5
v -2.5 6 0.5
v -2.5 7 0.5
v -2.5 8 0.5
v -1.5 1 0.5
v -1.5 2 0.5
v -1.5 3 0.5
v -1.5 4 0.5
v -1.5 5 0.5
v -1.5 6 0.5
v -1.5 7 0.5
v -1.5 8 0.5
v -0.5 1 0.5
v -0.5 2 0.5
v -0.5 3 0.5
v -0.5 4 0.5
v -0.5 5 0.5
v -0.5 6 0.5
v -0.5 7 0.5
v -0.5 8 0.5
v 0.5 1 0.5
v 0.5 2 0.5
v 0.5 3 0.5
v 0.5 4 0.5
v 0.5 5 0.5
v 0.5 6 0.5
v 0.5 7 0.5
v 0.5 8 0.5
v 1.5 1 0.5
v 1.5 2 0.5
v 1.5 3 0.5
v 1.5 4 0.5
v 1.5 5 0.5
v 1.5 6 0.5
v 1.5 7 0.5
v 1.5 8 0.5
v 2.5 1 0.5
v 2.5 2 0.5
v 2.5 3 0.5
v 2.5 4 0.5
v 2.5 7 0.5
v 2.5 8 0.5
v 3.5 2 0.5
v 3.5 3 0.5
v 3.5 4 0.5
v 3.5 5 0.5
v 3.5 6 0.5
v 3.5 7 0.5
v -3.5 2 -0.5
v -3.5 3 -0.5
v -3.5 4 -0.5
v -3.5 5 -0.5
v -3.5 6 -0.5
v -3.5 7 -0.5
v -2.5 1 -0.5
v -2.5 2 -0.5
v -2.5 5 -0.5
v -2.5 6 -0.5
v -2.5 7 -0.5
v -2.5 8 -0.5
v -1.5 1 -0.5
v -1.5 2 -0.5
v -1.5 3 -0.5
v -1.5 4 -0.5
v -1.5 5 -0.5
v -1.5 6 -0.5
v -1.5 7 -0.5
v -1.5 8 -0.5
v -0.5 1 -0.5
v -0.5 2 -0.5
v -0.5 3 -0.5
v -0.5 4 -0.5
v -0.5 5 -0.5
v -0.5 6 -0.5
v -0.5 7 -0.5
v -0.5 8 -0.5
v 0.5 1 -0.5
v 0.5 2 -0.5
v 0.5 3 -0.5
v 0.5 4 -0.5
v 0.5 5 -0.5
v 0.5 6 -0.5
v 0.5 7 -0.5
v 0.5 8 -0.5
v 1.5 1 -0.5
v 1.5 2 -0.5
v 1.5 3 -0.5
v 1.5 4 -0.5
v 1.5 5 -0.5
v 1.5 6 -0.5
v 1.5 7 -0.5
v 1.5 8 -0.5
v 2.5 1 -0.5
v 2.5 2 -0.5
v 2.5 3 -0.5
v 2.5 4 -0.5
v 2.5 7 -0.5
v 2.5 8 -0.5
v 3.5 2 -0.5
v 3.5 3 -0.5
v 3.5 4 -0.5
v 3.5 5 -0.5
v 3.5 6 -0.5
v 3.5 7 -0.5
v -4.5 2 -1.5
v -4.5 3 -1.5
v -4.5 4 -1.5
v -4.5 5 -1.5
v -4.5 6 -1.5
v -4.5 7 -1.5
v -3.5 1 -1.5
v -3.5 2 -1.5
v -3.5 3 -1.5
v -3.5 4 -1.5
v -3.5 5 -1.5
v -3.5 6 -1.5
v -3.5 7 -1.5
v -3.5 8 -1.5
v -2.5 0 -1.5
v -2.5 1 -1.5
v -2.5 2 -1.5
v -2.5 7 -1.5
v -2.5 8 -1.5
v -2.5 9 -1.5
v -1.5 0 -1.5
v -1.5 1 -1.5
v -1.5 8 -1.5
v -1.5 9 -1.5
v -0.5 0 -1.5
v -0.5 1 -1.5
v -0.5 8 -1.5
v -0.5 9 -1.5
v 0.5 0 -1.5
v 0.5 1 -1.5
v 0.5 8 -1.5
v 0.5 9 -1.5
v 1.5 0 -1.5
v 1.5 1 -1.5
v 1.5 8 -1.5
v 1.5 9 -1.5
v 2.5 0 -1.5
v 2.5 1 -1.5
v 2.5 2 -1.5
v 2.5 7 -1.5
v 2.5 8 -1.5
v 2.5 9 -1.5
v 3.5 1 -1.5
v 3.5 2 -1.5
v 3.5 3 -1.5
v 3.5 4 -1.5
v 3.5 5 -1.5
v 3.5 6 -1.5
v 3.5 7 -1.5
v 3.5 8 -1.5
v 4.5 2 -1.5
v 4.5 3 -1.5
v 4.5 4 -1.5
v 4.5 5 -1.5
v 4.5 6 -1.5
v 4.5 7 -1.5
v -2.5 0 1.5
v -1.5 0 1.5
v -0.5 0 1.5
v 0.5 0 1.5
v 1.5 0 1.5
v 2.5 0 1.5
v -2.5 0 -1.5
v -1.5 0 -1.5
v -0.5 0 -1.5
v 0.5 0 -1.5
v 1.5 0 -1.5
v 2.5 0 -1.5
v -3.5 1 1.5
v -2.5 1 1.5
v 2.5 1 1.5
v 3.5 1 1.5
v -3.5 1 -1.5
v -2.5 1 -1.5
v 2.5 1 -1.5
v 3.5 1 -1.5
v -4.5 2 1.5
v -3.5 2 1.5
v 3.5 2 1.5
v 4.5 2 1.5
v -4.5 2 -1.5
v -3.5 2 -1.5
v 3.5 2 -1.5
v 4.5 2 -1.5
v -3.5 7 1.5
v -2.5 7 1.5
v 2.5 7 1.5
v 3.5 7 1.5
v -3.5 7 0.5
v -2.5 7 0.5
v 2.5 7 0.5
v 3.5 7 0.5
v -3.5 7 -0.5
v -2.5 7 -0.5
v 2.5 7 -0.5
v 3.5 7 -0.5
v -3.5 7 -1.5
v -2.5 7 -1.5
v 2.5 7 -1.5
v 3.5 7 -1.5
v -2.5 8 1.5
v -1.5 8 1.5
v -0.5 8 1.5
v 0.5 8 1.5
v 1.5 8 1.5
v 2.5 8 1.5
v -2.5 8 0.5
v -1.5 8 0.5
v -0.5 8 0.5
v 0.5 8 0.5
v 1.5 8 0.5
v 2.5 8 0.5
v -2.5 8 -0.5
v -1.5 8 -0.5
v -0.5 8 -0.5
v 0.5 8 -0.5
v 1.5 8 -0.5
v 2.5 8 -0.5
v -2.5 8 -1.5
v -1.5 8 -1.5
v -0.5 8 -1.5
v 0.5 8 -1.5
v 1.5 8 -1.5
v 2.5 8 -1.5
v -2.5 1 1.5
v -1.5 1 1.5
v -0.5 1 1.5
v 0.5 1 1.5
v 1.5 1 1.5
v 2.5 1 1.5
v -2.5 1 0.5
v -1.5 1 0.5
v -0.5 1 0.5
v 0.5 1 0.5
v 1.5 1 0.5
v 2.5 1 0.5
v -2.5 1 -0.5
v -1.5 1 -0.5
v -0.5 1 -0.5
v 0.5 1 -0.5
v 1.5 1 -0.5
v 2.5 1 -0.5
v -2.5 1 -1.5
v -1.5 1 -1.5
v -0.5 1 -1.5
v 0.5 1 -1.5
v 1.5 1 -1.5
v 2.5 1 -1.5
v -3.5 2 1.5
v -2.5 2 1.5
v 2.5 2 1.5
v 3.5 2 1.5
v -3.5 2 0.5
v -2.5 2 0.5
v 2.5 2 0.5
v 3.5 2 0.5
v -3.5 2 -0.5
v -2.5 2 -0.5
v 2.5 2 -0.5
v 3.5 2 -0.5
v -3.5 2 -1.5
v -2.5 2 -1.5
v 2.5 2 -1.5
v 3.5 2 -1.5
v -4.5 7 1.5
v -3.5 7 1.5
v 3.5 7 1.5
v 4.5 7 1.5
v -4.5 7 -1.5
v -3.5 7 -1.5
v 3.5 7 -1.5
v 4.5 7 -1.5
v -3.5 8 1.5
v -2.5 8 1.5
v 2.5 8 1.5
v 3.5 8 1.5
v -3.5 8 -1.5
v -2.5 8 -1.5
v 2.5 8 -1.5
v 3.5 8 -1.5
v -2.5 9 1.5
v -1.5 9 1.5
v -0.5 9 1.5
v 0.5 9 1.5
v 1.5 9 1.5
v 2.5 9 1.5
v -2.5 9 -1.5
v -1.5 9 -1.5
v -0.5 9 -1.5
v 0.5 9 -1.5
v 1.5 9 -1.5
v 2.5 9 -1.5

# faces
f 3/2/1 2/2/1 1/2/1
f 4/2/1 2/2/1 3/2/1
f 5/3/1 4/3/1 3/3/1
f 6/3/1 4/3/1 5/3/1
f 7/2/1 6/2/1 5/2/1
f 8/2/1 6/2/1 7/2/1
f 9/3/1 8/3/1 7/3/1
f 10/3/1 8/3/1 9/3/1
f 11/2/1 10/2/1 9/2/1
f 12/2/1 10/2/1 11/2/1
f 15/3/1 14/3/1 13/3/1
f 16/3/1 14/3/1 15/3/1
f 19/3/1 18/3/1 17/3/1
f 20/3/1 18/3/1 19/3/1
f 23/2/1 22/2/1 21/2/1
f 24/2/1 22/2/1 23/2/1
f 27/2/1 26/2/1 25/2/1
f 28/2/1 26/2/1 27/2/1
f 33/3/1 30/3/1 29/3/1
f 34/3/1 30/3/1 33/3/1
f 35/3/1 32/3/1 31/3/1
f 36/3/1 32/3/1 35/3/1
f 41/3/1 38/3/1 37/3/1
f 42/3/1 38/3/1 41/3/1
f 43/3/1 40/3/1 39/3/1
f 44/3/1 40/3/1 43/3/1
f 49/2/1 46/2/1 45/2/1
f 50/2/1 46/2/1 49/2/1
f 51/2/1 48/2/1 47/2/1
f 52/2/1 48/2/1 51/2/1
f 53/3/1 50/3/1 49/3/1
f 54/3/1 50/3/1 53/3/1
f 55/3/1 52/3/1 51/3/1
f 56/3/1 52/3/1 55/3/1
f 57/2/1 54/2/1 53/2/1
f 58/2/1 54/2/1 57/2/1
f 59/2/1 56/2/1 55/2/1
f 60/2/1 56/2/1 59/2/1
f 61/3/1 58/3/1 57/3/1
f 62/3/1 58/3/1 61/3/1
f 63/3/1 60/3/1 59/3/1
f 64/3/1 60/3/1 63/3/1
f 65/2/1 62/2/1 61/2/1
f 66/2/1 62/2/1 65/2/1
f 67/2/1 64/2/1 63/2/1
f 68/2/1 64/2/1 67/2/1
f 69/2/2 70/2/2 73/2/2
f 73/2/2 70/2/2 74/2/2
f 71/2/2 72/2/2 75/2/2
f 75/2/2 72/2/2 76/2/2
f 73/3/2 74/3/2 77/3/2
f 77/3/2 74/3/2 78/3/2
f 75/3/2 76/3/2 79/3/2
f 79/3/2 76/3/2 80/3/2
f 77/2/2 78/2/2 81/2/2
f 81/2/2 78/2/2 82/2/2
f 79/2/2 80/2/2 83/2/2
f 83/2/2 80/2/2 84/2/2
f 81/3/2 82/3/2 85/3/2
f 85/3/2 82/3/2 86/3/2
f 83/3/2 84/3/2 87/3/2
f 87/3/2 84/3/2 88/3/2
f 85/2/2 86/2/2 89/2/2
f 89/2/2 86/2/2 90/2/2
f 87/2/2 88/2/2 91/2/2
f 91/2/2 88/2/2 92/2/2
f 93/3/2 94/3/2 97/3/2
f 97/3/2 94/3/2 98/3/2
f 95/3/2 96/3/2 99/3/2
f 99/3/2 96/3/2 100/3/2
f 101/3/2 102/3/2 105/3/2
f 105/3/2 102/3/2 106/3/2
f 103/3/2 104/3/2 107/3/2
f 107/3/2 104/3/2 108/3/2
f 109/2/2 110/2/2 111/2/2
f 111/2/2 110/2/2 112/2/2
f 113/2/2 114/2/2 115/2/2
f 115/2/2 114/2/2 116/2/2
f 117/3/2 118/3/2 119/3/2
f 119/3/2 118/3/2 120/3/2
f 121/3/2 122/3/2 123/3/2
f 123/3/2 122/3/2 124/3/2
f 125/2/2 126/2/2 127/2/2
f 127/2/2 126/2/2 128/2/2
f 127/3/2 128/3/2 129/3/2
f 129/3/2 128/3/2 130/3/2
f 129/2/2 130/2/2 131/2/2
f 131/2/2 130/2/2 132/2/2
f 131/3/2 132/3/2 133/3/2
f 133/3/2 132/3/2 134/3/2
f 133/2/2 134/2/2 135/2/2
f 135/2/2 134/2/2 136/2/2
f 144/2/3 138/2/3 137/2/3
f 145/3/3 139/3/3 138/3/3
f 145/2/3 138/2/3 144/2/3
f 146/2/3 140/2/3 139/2/3
f 146/3/3 139/3/3 145/3/3
f 147/3/3 141/3/3 140/3/3
f 147/2/3 140/2/3 146/2/3
f 148/2/3 142/2/3 141/2/3
f 148/3/3 141/3/3 147/3/3
f 149/2/3 142/2/3 148/2/3
f 152/3/3 144/3/3 143/3/3
f 153/3/3 144/3/3 152/3/3
f 154/3/3 150/3/3 149/3/3
f 155/3/3 150/3/3 154/3/3
f 157/2/3 152/2/3 151/2/3
f 158/2/3 152/2/3 157/2/3
f 159/2/3 156/2/3 155/2/3
f 160/2/3 156/2/3 159/2/3
f 161/3/3 158/3/3 157/3/3
f 162/3/3 158/3/3 161/3/3
f 163/3/3 160/3/3 159/3/3
f 164/3/3 160/3/3 163/3/3
f 165/2/3 162/2/3 161/2/3
f 166/2/3 162/2/3 165/2/3
f 167/2/3 164/2/3 163/2/3
f 168/2/3 164/2/3 167/2/3
f 169/3/3 166/3/3 165/3/3
f 170/3/3 166/3/3 169/3/3
f 171/3/3 168/3/3 167/3/3
f 172/3/3 168/3/3 171/3/3
f 173/2/3 170/2/3 169/2/3
f 174/2/3 170/2/3 173/2/3
f 177/2/3 172/2/3 171/2/3
f 178/2/3 172/2/3 177/2/3
f 179/3/3 175/3/3 174/3/3
f 180/3/3 175/3/3 179/3/3
f 185/3/3 177/3/3 176/3/3
f 186/3/3 177/3/3 185/3/3
f 187/2/3 181/2/3 180/2/3
f 188/3/3 182/3/3 181/3/3
f 188/2/3 181/2/3 187/2/3
f 189/2/3 183/2/3 182/2/3
f 189/3/3 182/3/3 188/3/3
f 190/3/3 184/3/3 183/3/3
f 190/2/3 183/2/3 189/2/3
f 191/2/3 185/2/3 184/2/3
f 191/3/3 184/3/3 190/3/3
f 192/2/3 185/2/3 191/2/3
f 200/1/3 194/1/3 193/1/3
f 200/1/3 198/1/3 197/1/3
f 200/1/3 197/1/3 196/1/3
f 200/1/3 196/1/3 195/1/3
f 200/1/3 195/1/3 194/1/3
f 201/1/3 198/1/3 200/1/3
f 202/1/3 198/1/3 201/1/3
f 203/1/3 198/1/3 202/1/3
f 205/1/3 200/1/3 199/1/3
f 205/1/3 201/1/3 200/1/3
f 206/1/3 201/1/3 205/1/3
f 207/1/3 201/1/3 206/1/3
f 208/1/3 201/1/3 207/1/3
f 209/3/3 202/3/3 201/3/3
f 209/1/3 201/1/3 208/1/3
f 210/1/3 204/1/3 203/1/3
f 210/3/3 202/3/3 209/3/3
f 210/1/3 203/1/3 202/1/3
f 211/1/3 204/1/3 210/1/3
f 212/1/3 204/1/3 211/1/3
f 213/1/3 206/1/3 205/1/3
f 214/3/3 207/3/3 206/3/3
f 214/1/3 206/1/3 213/1/3
f 215/1/3 208/1/3 207/1/3
f 215/3/3 207/3/3 214/3/3
f 216/3/3 209/3/3 208/3/3
f 216/1/3 208/1/3 215/1/3
f 217/1/3 210/1/3 209/1/3
f 217/3/3 209/3/3 216/3/3
f 218/3/3 211/3/3 210/3/3
f 218/1/3 210/1/3 217/1/3
f 219/1/3 212/1/3 211/1/3
f 219/3/3 211/3/3 218/3/3
f 220/1/3 212/1/3 219/1/3
f 221/3/3 215/3/3 214/3/3
f 221/3/3 214/3/3 213/3/3
f 222/3/3 215/3/3 221/3/3
f 223/2/3 216/2/3 215/2/3
f 223/3/3 215/3/3 222/3/3
f 224/3/3 217/3/3 216/3/3
f 224/2/3 216/2/3 223/2/3
f 225/2/3 218/2/3 217/2/3
f 225/3/3 217/3/3 224/3/3
f 226/3/3 220/3/3 219/3/3
f 226/2/3 218/2/3 225/2/3
f 226/3/3 219/3/3 218/3/3
f 227/3/3 220/3/3 226/3/3
f 228/3/3 220/3/3 227/3/3
f 229/1/3 222/1/3 221/1/3
f 230/3/3 223/3/3 222/3/3
f 230/1/3 222/1/3 229/1/3
f 231/1/3 224/1/3 223/1/3
f 231/3/3 223/3/3 230/3/3
f 232/3/3 225/3/3 224/3/3
f 232/1/3 224/1/3 231/1/3
f 233/1/3 226/1/3 225/1/3
f 233/3/3 225/3/3 232/3/3
f 234/3/3 227/3/3 226/3/3
f 234/1/3 226/1/3 233/1/3
f 235/1/3 228/1/3 227/1/3
f 235/3/3 227/3/3 234/3/3
f 236/1/3 228/1/3 235/1/3
f 237/1/3 231/1/3 230/1/3
f 237/1/3 230/1/3 229/1/3
f 238/1/3 231/1/3 237/1/3
f 239/3/3 232/3/3 231/3/3
f 239/1/3 231/1/3 238/1/3
f 240/1/3 236/1/3 235/1/3
f 240/3/3 232/3/3 239/3/3
f 240/1/3 233/1/3 232/1/3
f 240/1/3 234/1/3 233/1/3
f 240/1/3 235/1/3 234/1/3
f 241/1/3 236/1/3 240/1/3
f 242/1/3 236/1/3 241/1/3
f 243/1/3 239/1/3 238/1/3
f 243/1/3 241/1/3 240/1/3
f 243/1/3 240/1/3 239/1/3
f 244/1/3 241/1/3 243/1/3
f 245/1/3 241/1/3 244/1/3
f 246/1/3 241/1/3 245/1/3
f 247/1/3 241/1/3 246/1/3
f 248/1/3 241/1/3 247/1/3
f 249/1/4 250/1/4 256/1/4
f 253/1/4 254/1/4 256/1/4
f 252/1/4 253/1/4 256/1/4
f 251/1/4 252/1/4 256/1/4
f 250/1/4 251/1/4 256/1/4
f 256/1/4 254/1/4 257/1/4
f 257/1/4 254/1/4 258/1/4
f 258/1/4 254/1/4 259/1/4
f 255/1/4 256/1/4 261/1/4
f 256/1/4 257/1/4 261/1/4
f 261/1/4 257/1/4 262/1/4
f 262/1/4 257/1/4 263/1/4
f 263/1/4 257/1/4 264/1/4
f 257/3/4 258/3/4 265/3/4
f 264/1/4 257/1/4 265/1/4
f 259/1/4 260/1/4 266/1/4
f 265/3/4 258/3/4 266/3/4
f 258/1/4 259/1/4 266/1/4
f 266/1/4 260/1/4 267/1/4
f 267/1/4 260/1/4 268/1/4
f 261/1/4 262/1/4 269/1/4
f 262/3/4 263/3/4 270/3/4
f 269/1/4 262/1/4 270/1/4
f 263/1/4 264/1/4 271/1/4
f 270/3/4 263/3/4 271/3/4
f 264/3/4 265/3/4 272/3/4
f 271/1/4 264/1/4 272/1/4
f 265/1/4 266/1/4 273/1/4
f 272/3/4 265/3/4 273/3/4
f 266/3/4 267/3/4 274/3/4
f 273/1/4 266/1/4 274/1/4
f 267/1/4 268/1/4 275/1/4
f 274/3/4 267/3/4 275/3/4
f 275/1/4 268/1/4 276/1/4
f 270/3/4 271/3/4 277/3/4
f 269/3/4 270/3/4 277/3/4
f 277/3/4 271/3/4 278/3/4
f 271/2/4 272/2/4 279/2/4
f 278/3/4 271/3/4 279/3/4
f 272/3/4 273/3/4 280/3/4
f 279/2/4 272/2/4 280/2/4
f 273/2/4 274/2/4 281/2/4
f 280/3/4 273/3/4 281/3/4
f 275/3/4 276/3/4 282/3/4
f 281/2/4 274/2/4 282/2/4
f 274/3/4 275/3/4 282/3/4
f 282/3/4 276/3/4 283/3/4
f 283/3/4 276/3/4 284/3/4
f 277/1/4 278/1/4 285/1/4
f 278/3/4 279/3/4 286/3/4
f 285/1/4 278/1/4 286/1/4
f 279/1/4 280/1/4 287/1/4
f 286/3/4 279/3/4 287/3/4
f 280/3/4 281/3/4 288/3/4
f 287/1/4 280/1/4 288/1/4
f 281/1/4 282/1/4 289/1/4
f 288/3/4 281/3/4 289/3/4
f 282/3/4 283/3/4 290/3/4
f 289/1/4 282/1/4 290/1/4
f 283/1/4 284/1/4 291/1/4
f 290/3/4 283/3/4 291/3/4
f 291/1/4 284/1/4 292/1/4
f 286/1/4 287/1/4 293/1/4
f 285/1/4 286/1/4 293/1/4
f 293/1/4 287/1/4 294/1/4
f 287/3/4 288/3/4 295/3/4
f 294/1/4 287/1/4 295/1/4
f 291/1/4 292/1/4 296/1/4
f 295/3/4 288/3/4 296/3/4
f 288/1/4 289/1/4 296/1/4
f 289/1/4 290/1/4 296/1/4
f 290/1/4 291/1/4 296/1/4
f 296/1/4 292/1/4 297/1/4
f 297/1/4 292/1/4 298/1/4
f 294/1/4 295/1/4 299/1/4
f 296/1/4 297/1/4 299/1/4
f 295/1/4 296/1/4 299/1/4
f 299/1/4 297/1/4 300/1/4
f 300/1/4 297/1/4 301/1/4
f 301/1/4 297/1/4 302/1/4
f 302/1/4 297/1/4 303/1/4
f 303/1/4 297/1/4 304/1/4
f 305/2/4 306/2/4 312/2/4
f 306/3/4 307/3/4 313/3/4
f 312/2/4 306/2/4 313/2/4
f 307/2/4 308/2/4 314/2/4
f 313/3/4 307/3/4 314/3/4
f 308/3/4 309/3/4 315/3/4
f 314/2/4 308/2/4 315/2/4
f 309/2/4 310/2/4 316/2/4
f 315/3/4 309/3/4 316/3/4
f 316/2/4 310/2/4 317/2/4
f 311/3/4 312/3/4 320/3/4
f 320/3/4 312/3/4 321/3/4
f 317/3/4 318/3/4 322/3/4
f 322/3/4 318/3/4 323/3/4
f 319/2/4 320/2/4 325/2/4
f 325/2/4 320/2/4 326/2/4
f 323/2/4 324/2/4 327/2/4
f 327/2/4 324/2/4 328/2/4
f 325/3/4 326/3/4 329/3/4
f 329/3/4 326/3/4 330/3/4
f 327/3/4 328/3/4 331/3/4
f 331/3/4 328/3/4 332/3/4
f 329/2/4 330/2/4 333/2/4
f 333/2/4 330/2/4 334/2/4
f 331/2/4 332/2/4 335/2/4
f 335/2/4 332/2/4 336/2/4
f 333/3/4 334/3/4 337/3/4
f 337/3/4 334/3/4 338/3/4
f 335/3/4 336/3/4 339/3/4
f 339/3/4 336/3/4 340/3/4
f 337/2/4 338/2/4 341/2/4
f 341/2/4 338/2/4 342/2/4
f 339/2/4 340/2/4 345/2/4
f 345/2/4 340/2/4 346/2/4
f 342/3/4 343/3/4 347/3/4
f 347/3/4 343/3/4 348/3/4
f 344/3/4 345/3/4 353/3/4
f 353/3/4 345/3/4 354/3/4
f 348/2/4 349/2/4 355/2/4
f 349/3/4 350/3/4 356/3/4
f 355/2/4 349/2/4 356/2/4
f 350/2/4 351/2/4 357/2/4
f 356/3/4 350/3/4 357/3/4
f 351/3/4 352/3/4 358/3/4
f 357/2/4 351/2/4 358/2/4
f 352/2/4 353/2/4 359/2/4
f 358/3/4 352/3/4 359/3/4
f 359/2/4 353/2/4 360/2/4
f 367/2/5 362/2/5 361/2/5
f 368/3/5 363/3/5 362/3/5
f 368/2/5 362/2/5 367/2/5
f 369/2/5 364/2/5 363/2/5
f 369/3/5 363/3/5 368/3/5
f 370/3/5 365/3/5 364/3/5
f 370/2/5 364/2/5 369/2/5
f 371/2/5 366/2/5 365/2/5
f 371/3/5 365/3/5 370/3/5
f 372/2/5 366/2/5 371/2/5
f 377/3/5 374/3/5 373/3/5
f 378/3/5 374/3/5 377/3/5
f 379/3/5 376/3/5 375/3/5
f 380/3/5 376/3/5 379/3/5
f 385/2/5 382/2/5 381/2/5
f 386/2/5 382/2/5 385/2/5
f 387/2/5 384/2/5 383/2/5
f 388/2/5 384/2/5 387/2/5
f 393/3/5 390/3/5 389/3/5
f 394/3/5 390/3/5 393/3/5
f 395/3/5 392/3/5 391/3/5
f 396/3/5 392/3/5 395/3/5
f 401/3/5 398/3/5 397/3/5
f 402/3/5 398/3/5 401/3/5
f 403/3/5 400/3/5 399/3/5
f 404/3/5 400/3/5 403/3/5
f 411/2/5 406/2/5 405/2/5
f 412/3/5 407/3/5 406/3/5
f 412/2/5 406/2/5 411/2/5
f 413/2/5 408/2/5 407/2/5
f 413/3/5 407/3/5 412/3/5
f 414/3/5 409/3/5 408/3/5
f 414/2/5 408/2/5 413/2/5
f 415/2/5 410/2/5 409/2/5
f 415/3/5 409/3/5 414/3/5
f 416/2/5 410/2/5 415/2/5
f 423/2/5 418/2/5 417/2/5
f 424/3/5 419/3/5 418/3/5
f 424/2/5 418/2/5 423/2/5
f 425/2/5 420/2/5 419/2/5
f 425/3/5 419/3/5 424/3/5
f 426/3/5 421/3/5 420/3/5
f 426/2/5 420/2/5 425/2/5
f 427/2/5 422/2/5 421/2/5
f 427/3/5 421/3/5 426/3/5
f 428/2/5 422/2/5 427/2/5
f 429/2/6 430/2/6 435/2/6
f 430/3/6 431/3/6 436/3/6
f 435/2/6 430/2/6 436/2/6
f 431/2/6 432/2/6 437/2/6
f 436/3/6 431/3/6 437/3/6
f 432/3/6 433/3/6 438/3/6
f 437/2/6 432/2/6 438/2/6
f 433/2/6 434/2/6 439/2/6
f 438/3/6 433/3/6 439/3/6
f 439/2/6 434/2/6 440/2/6
f 441/2/6 442/2/6 447/2/6
f 442/3/6 443/3/6 448/3/6
f 447/2/6 442/2/6 448/2/6
f 443/2/6 444/2/6 449/2/6
f 448/3/6 443/3/6 449/3/6
f 444/3/6 445/3/6 450/3/6
f 449/2/6 444/2/6 450/2/6
f 445/2/6 446/2/6 451/2/6
f 450/3/6 445/3/6 451/3/6
f 451/2/6 446/2/6 452/2/6
f 453/3/6 454/3/6 457/3/6
f 457/3/6 454/3/6 458/3/6
f 455/3/6 456/3/6 459/3/6
f 459/3/6 456/3/6 460/3/6
f 461/3/6 462/3/6 465/3/6
f 465/3/6 462/3/6 466/3/6
f 463/3/6 464/3/6 467/3/6
f 467/3/6 464/3/6 468/3/6
f 469/2/6 470/2/6 473/2/6
f 473/2/6 470/2/6 474/2/6
f 471/2/6 472/2/6 475/2/6
f 475/2/6 472/2/6 476/2/6
f 477/3/6 478/3/6 481/3/6
f 481/3/6 478/3/6 482/3/6
f 479/3/6 480/3/6 483/3/6
f 483/3/6 480/3/6 484/3/6
f 485/2/6 486/2/6 491/2/6
f 486/3/6 487/3/6 492/3/6
f 491/2/6 486/2/6 492/2/6
f 487/2/6 488/2/6 493/2/6
f 492/3/6 487/3/6 493/3/6
f 488/3/6 489/3/6 494/3/6
f 493/2/6 488/2/6 494/2/6
f 489/2/6 490/2/6 495/2/6
f 494/3/6 489/3/6 495/3/6
f 495/2/6 490/2/6 496/2/6
